<?xml version="1.0" encoding="UTF-8"?>
<svg xmlns="http://www.w3.org/2000/svg" width="39" height="39" viewBox="0 0 39 39" fill="none">
  <path d="M13.4996 7.49979C14.4996 8.49979 16.5056 8.32379 19.4996 5.85179M19.4996 5.85179C19.0569 5.48912 18.5976 5.07179 18.1216 4.59979C13.5096 0.0317882 7.22956 0.925788 4.28756 4.59979C2.25556 7.13979 -2.94444 13.4598 9.78356 35.9798C10.3116 36.9118 11.3616 37.4998 12.4916 37.4998C14.2956 37.4998 15.7056 36.0598 15.7636 34.3798C15.8896 30.8158 16.5796 26.7058 19.4996 26.7058C22.4196 26.7058 23.1116 30.8158 23.2356 34.3798C23.2936 36.0598 24.7036 37.4998 26.5076 37.4998C27.6376 37.4998 28.6876 36.9118 29.2156 35.9798C41.9456 13.4578 36.7436 7.13979 34.7116 4.59979C31.7696 0.925788 25.4896 0.0317882 20.8776 4.59979C20.4016 5.07046 19.9422 5.48779 19.4996 5.85179Z" stroke="#4E29D9" stroke-width="3" stroke-linecap="round" stroke-linejoin="round"></path>
</svg>
